<?xml version="1.0" encoding="utf-8"?>
<!-- Generator: Adobe Illustrator 26.0.1, SVG Export Plug-In . SVG Version: 6.00 Build 0)  -->
<svg version="1.1" id="Layer_1" xmlns="http://www.w3.org/2000/svg" xmlns:xlink="http://www.w3.org/1999/xlink" x="0px" y="0px"
	 viewBox="0 0 32 32" style="enable-background:new 0 0 32 32;" xml:space="preserve">
<style type="text/css">
	.st0{fill:#FFFFFF;}
</style>
<g>
	<ellipse class="st0" cx="4.58" cy="6.47" rx="2.8" ry="2.27"/>
	<path class="st0" d="M4.58,9.24c-1.82,0-3.3-1.24-3.3-2.77S2.76,3.7,4.58,3.7s3.3,1.24,3.3,2.77S6.4,9.24,4.58,9.24z M4.58,4.7
		c-1.27,0-2.3,0.79-2.3,1.77c0,0.97,1.03,1.77,2.3,1.77s2.3-0.79,2.3-1.77C6.89,5.5,5.85,4.7,4.58,4.7z"/>
</g>
<g>
	<ellipse class="st0" cx="27.49" cy="6.47" rx="2.8" ry="2.27"/>
	<path class="st0" d="M27.49,9.24c-1.82,0-3.3-1.24-3.3-2.77s1.48-2.77,3.3-2.77c1.82,0,3.3,1.24,3.3,2.77S29.31,9.24,27.49,9.24z
		 M27.49,4.7c-1.27,0-2.3,0.79-2.3,1.77c0,0.97,1.03,1.77,2.3,1.77s2.3-0.79,2.3-1.77C29.79,5.5,28.76,4.7,27.49,4.7z"/>
</g>
<g>
	<line class="st0" x1="4.58" y1="8.74" x2="27.49" y2="8.74"/>
	<rect x="4.58" y="8.24" class="st0" width="22.9" height="1"/>
</g>
<g>
	<line class="st0" x1="27.49" y1="4.2" x2="4.58" y2="4.2"/>
	<rect x="4.58" y="3.7" class="st0" width="22.9" height="1"/>
</g>
<g>
	<ellipse class="st0" cx="4.89" cy="25.47" rx="2.8" ry="2.27"/>
	<path class="st0" d="M4.89,28.24c-1.82,0-3.3-1.24-3.3-2.77s1.48-2.77,3.3-2.77c1.82,0,3.3,1.24,3.3,2.77S6.72,28.24,4.89,28.24z
		 M4.89,23.7c-1.27,0-2.3,0.79-2.3,1.77s1.03,1.77,2.3,1.77s2.3-0.79,2.3-1.77S6.16,23.7,4.89,23.7z"/>
</g>
<g>
	<ellipse class="st0" cx="27.8" cy="25.47" rx="2.8" ry="2.27"/>
	<path class="st0" d="M27.8,28.24c-1.82,0-3.3-1.24-3.3-2.77s1.48-2.77,3.3-2.77c1.82,0,3.3,1.24,3.3,2.77S29.62,28.24,27.8,28.24z
		 M27.8,23.7c-1.27,0-2.3,0.79-2.3,1.77s1.03,1.77,2.3,1.77s2.3-0.79,2.3-1.77S29.07,23.7,27.8,23.7z"/>
</g>
<g>
	<line class="st0" x1="4.89" y1="27.74" x2="27.8" y2="27.74"/>
	<rect x="4.89" y="27.24" class="st0" width="22.9" height="1"/>
</g>
<g>
	<line class="st0" x1="27.8" y1="23.2" x2="4.89" y2="23.2"/>
	<rect x="4.89" y="22.7" class="st0" width="22.9" height="1"/>
</g>
<g>
	<ellipse class="st0" cx="4.89" cy="16" rx="2.8" ry="2.27"/>
	<path class="st0" d="M4.89,18.77c-1.82,0-3.3-1.24-3.3-2.77s1.48-2.77,3.3-2.77c1.82,0,3.3,1.24,3.3,2.77S6.72,18.77,4.89,18.77z
		 M4.89,14.23c-1.27,0-2.3,0.79-2.3,1.77s1.03,1.77,2.3,1.77S7.2,16.97,7.2,16S6.16,14.23,4.89,14.23z"/>
</g>
<g>
	<ellipse class="st0" cx="27.8" cy="16" rx="2.8" ry="2.27"/>
	<path class="st0" d="M27.8,18.77c-1.82,0-3.3-1.24-3.3-2.77s1.48-2.77,3.3-2.77c1.82,0,3.3,1.24,3.3,2.77S29.62,18.77,27.8,18.77z
		 M27.8,14.23c-1.27,0-2.3,0.79-2.3,1.77s1.03,1.77,2.3,1.77s2.3-0.79,2.3-1.77S29.07,14.23,27.8,14.23z"/>
</g>
<g>
	<line class="st0" x1="4.89" y1="18.27" x2="27.8" y2="18.27"/>
	<rect x="4.89" y="17.77" class="st0" width="22.9" height="1"/>
</g>
<g>
	<line class="st0" x1="27.8" y1="13.73" x2="4.89" y2="13.73"/>
	<rect x="4.89" y="13.23" class="st0" width="22.9" height="1"/>
</g>
<rect x="4.89" y="22.7" class="st0" width="22.9" height="5.53"/>
<rect x="4.89" y="13.23" class="st0" width="22.9" height="5.53"/>
<rect x="4.58" y="3.7" class="st0" width="22.9" height="5.53"/>
<g>
</g>
<g>
</g>
<g>
</g>
<g>
</g>
<g>
</g>
<g>
</g>
</svg>
